<svg aria-hidden="true" style="position: absolute; width: 0; height: 0; overflow: hidden;" version="1.1" xmlns="http://www.w3.org/2000/svg" xmlns:xlink="http://www.w3.org/1999/xlink">
<defs>
<symbol id="icon-linkedin" viewBox="0 0 32 32">
<path d="M31.992 32v-0.001h0.008v-11.736c0-5.741-1.236-10.164-7.948-10.164-3.227 0-5.392 1.771-6.276 3.449h-0.093v-2.913h-6.364v21.364h6.627v-10.579c0-2.785 0.528-5.479 3.977-5.479 3.399 0 3.449 3.179 3.449 5.657v10.401h6.62z"></path>
<path d="M0.528 10.636h6.635v21.364h-6.635v-21.364z"></path>
<path d="M3.843-0c-2.121 0-3.843 1.721-3.843 3.843s1.721 3.879 3.843 3.879c2.121 0 3.843-1.757 3.843-3.879-0.001-2.121-1.723-3.843-3.843-3.843v0z"></path>
</symbol>
<symbol id="icon-facebook" viewBox="0 0 32 32">
<path d="M21.329 5.313h2.921v-5.088c-0.504-0.069-2.237-0.225-4.256-0.225-4.212 0-7.097 2.649-7.097 7.519v4.481h-4.648v5.688h4.648v14.312h5.699v-14.311h4.46l0.708-5.688h-5.169v-3.919c0.001-1.644 0.444-2.769 2.735-2.769z"></path>
</symbol>
<symbol id="icon-instagram" viewBox="0 0 32 32">
<path d="M31.969 9.408c-0.075-1.7-0.35-2.869-0.744-3.882-0.406-1.075-1.031-2.038-1.85-2.838-0.8-0.813-1.769-1.444-2.832-1.844-1.019-0.394-2.182-0.669-3.882-0.744-1.713-0.081-2.257-0.1-6.601-0.1s-4.888 0.019-6.595 0.094c-1.7 0.075-2.869 0.35-3.882 0.744-1.075 0.406-2.038 1.031-2.838 1.85-0.813 0.8-1.444 1.769-1.844 2.832-0.394 1.019-0.669 2.182-0.744 3.882-0.081 1.713-0.1 2.257-0.1 6.601s0.019 4.888 0.094 6.595c0.075 1.7 0.35 2.869 0.744 3.882 0.406 1.075 1.038 2.038 1.85 2.838 0.8 0.813 1.769 1.444 2.832 1.844 1.019 0.394 2.182 0.669 3.882 0.744 1.706 0.075 2.25 0.094 6.595 0.094s4.888-0.019 6.595-0.094c1.7-0.075 2.869-0.35 3.882-0.744 2.151-0.831 3.851-2.532 4.682-4.682 0.394-1.019 0.669-2.182 0.744-3.882 0.075-1.707 0.094-2.25 0.094-6.595s-0.006-4.888-0.081-6.595zM29.087 22.473c-0.069 1.563-0.331 2.407-0.55 2.969-0.538 1.394-1.644 2.5-3.038 3.038-0.563 0.219-1.413 0.481-2.969 0.55-1.688 0.075-2.194 0.094-6.464 0.094s-4.782-0.019-6.464-0.094c-1.563-0.069-2.407-0.331-2.969-0.55-0.694-0.256-1.325-0.663-1.838-1.194-0.531-0.519-0.938-1.144-1.194-1.838-0.219-0.563-0.481-1.413-0.55-2.969-0.075-1.688-0.094-2.194-0.094-6.464s0.019-4.782 0.094-6.464c0.069-1.563 0.331-2.407 0.55-2.969 0.256-0.694 0.663-1.325 1.2-1.838 0.519-0.531 1.144-0.938 1.838-1.194 0.563-0.219 1.413-0.481 2.969-0.55 1.688-0.075 2.194-0.094 6.464-0.094 4.276 0 4.782 0.019 6.464 0.094 1.563 0.069 2.407 0.331 2.969 0.55 0.694 0.256 1.325 0.662 1.838 1.194 0.531 0.519 0.938 1.144 1.194 1.838 0.219 0.563 0.481 1.413 0.55 2.969 0.075 1.688 0.094 2.194 0.094 6.464s-0.019 4.77-0.094 6.458z"></path>
<path d="M16.059 7.783c-4.538 0-8.22 3.682-8.22 8.22s3.682 8.22 8.22 8.22c4.538 0 8.22-3.682 8.22-8.22s-3.682-8.22-8.22-8.22zM16.059 21.335c-2.944 0-5.332-2.388-5.332-5.332s2.388-5.332 5.332-5.332c2.944 0 5.332 2.388 5.332 5.332s-2.388 5.332-5.332 5.332z"></path>
<path d="M26.524 7.458c0 1.060-0.859 1.919-1.919 1.919s-1.919-0.859-1.919-1.919c0-1.060 0.859-1.919 1.919-1.919s1.919 0.859 1.919 1.919z"></path>
</symbol>
<symbol id="icon-hamburger" viewBox="0 0 32 32"><path d="M.132 4.668a2.268 2.268 0 0 1 2.267-2.267h27.2a2.268 2.268 0 0 1 0 4.534h-27.2A2.268 2.268 0 0 1 .132 4.668zM.132 16.002a2.268 2.268 0 0 1 2.267-2.267h27.2a2.268 2.268 0 0 1 0 4.534h-27.2a2.268 2.268 0 0 1-2.267-2.267zM.132 27.335a2.268 2.268 0 0 1 2.267-2.267h27.2a2.268 2.268 0 0 1 0 4.534h-27.2a2.268 2.268 0 0 1-2.267-2.267z"/></symbol>
<symbol id="icon-close" viewBox="0 0 32 32"><path d="M32 3.223 28.777 0 16 12.777 3.223 0 0 3.223 12.777 16 0 28.777 3.223 32 16 19.223 28.777 32 32 28.777 19.223 16 32 3.223z"/></symbol>
<symbol id="icon-arrow-right" viewBox="0 0 20 20">
<path d="M10 0c5.523 0 10 4.477 10 10s-4.477 10-10 10v0c-5.523 0-10-4.477-10-10s4.477-10 10-10v0zM2 10c0 4.418 3.582 8 8 8s8-3.582 8-8v0c0-4.418-3.582-8-8-8s-8 3.582-8 8v0zM12.54 10.7l-3.54 3.55-1.41-1.41 2.81-2.84-2.8-2.83 1.4-1.41 4.24 4.24-0.7 0.7z"></path>
</symbol>
<symbol id="icon-arrow" viewBox="0 0 11.5 19.5"><path fill="none" d="M1.729,0.897 L10.203,9.387 L1.729,17.877 "/></symbol>
<symbol id="icon-truck" viewBox="0 0 63 39">
<path 
 d="M61.797,26.804 L58.152,26.804 L58.152,26.815 L58.152,32.910 L58.152,34.120 L56.950,34.120 L54.497,34.120 L54.267,34.120 C53.477,36.931 50.904,38.997 47.860,38.997 C44.817,38.997 42.244,36.931 41.454,34.120 L41.223,34.120 L36.347,34.120 L36.017,34.120 C35.599,34.848 34.817,35.340 33.924,35.340 L23.016,35.340 C22.123,35.340 21.341,34.848 20.923,34.120 L20.593,34.120 L19.381,34.120 L19.122,34.120 C18.332,36.931 15.759,38.997 12.715,38.997 C9.672,38.997 7.099,36.931 6.309,34.120 L6.050,34.120 L1.808,34.120 C0.811,34.120 0.000,33.305 0.000,32.301 L0.000,19.497 C0.000,18.579 0.136,17.631 0.405,16.683 L2.985,7.561 C3.228,6.699 4.021,6.095 4.913,6.095 L17.563,6.095 C18.560,6.095 19.371,6.911 19.371,7.915 L19.371,25.604 L19.390,25.604 L19.390,25.596 L19.390,1.207 L19.390,-0.002 L20.593,-0.002 L61.797,-0.002 L62.999,-0.002 L62.999,1.207 L62.999,25.596 L62.999,26.804 L61.797,26.804 ZM54.497,32.910 L56.950,32.910 L56.950,26.815 L51.684,26.815 C53.400,28.030 54.526,30.038 54.526,32.301 C54.526,32.507 54.516,32.709 54.497,32.910 ZM47.860,37.787 C50.864,37.787 53.314,35.323 53.314,32.301 C53.314,29.279 50.864,26.815 47.860,26.815 C44.857,26.815 42.407,29.279 42.407,32.301 C42.407,35.323 44.857,37.787 47.860,37.787 ZM36.347,32.910 L41.223,32.910 C41.204,32.709 41.195,32.507 41.195,32.301 C41.195,30.038 42.320,28.030 44.036,26.815 L36.347,26.815 L36.347,32.910 ZM21.805,32.910 C21.805,33.581 22.350,34.130 23.016,34.130 L33.924,34.130 C34.590,34.130 35.135,33.581 35.135,32.910 L35.135,28.033 C35.135,27.363 34.590,26.815 33.924,26.815 L23.016,26.815 C22.350,26.815 21.805,27.363 21.805,28.033 L21.805,32.910 ZM12.715,37.787 C15.719,37.787 18.169,35.323 18.169,32.301 C18.169,29.279 15.719,26.815 12.715,26.815 C9.712,26.815 7.262,29.279 7.262,32.301 C7.262,35.323 9.712,37.787 12.715,37.787 ZM18.169,26.815 L18.169,7.915 C18.169,7.577 17.898,7.305 17.563,7.305 L4.913,7.305 C4.555,7.305 4.239,7.545 4.142,7.891 L1.562,17.014 C1.334,17.818 1.202,18.662 1.202,19.497 L1.202,32.301 C1.202,32.637 1.473,32.910 1.808,32.910 L6.050,32.910 L6.050,32.301 C6.050,28.608 9.045,25.596 12.715,25.596 C16.387,25.596 19.381,28.608 19.381,32.301 L19.381,32.910 L20.593,32.910 L20.593,26.815 L18.169,26.815 ZM61.797,1.207 L20.593,1.207 L20.593,25.596 L61.797,25.596 L61.797,1.207 ZM12.109,20.716 L13.321,20.716 L13.321,23.156 L12.109,23.156 L12.109,20.716 ZM4.838,9.743 L13.321,9.743 L13.321,18.278 L2.414,18.278 L4.838,9.743 ZM12.119,10.954 L5.745,10.954 L4.008,17.069 L12.119,17.069 L12.119,10.954 ZM12.715,28.948 C14.551,28.948 16.048,30.455 16.048,32.301 C16.048,34.147 14.551,35.654 12.715,35.654 C10.880,35.654 9.383,34.147 9.383,32.301 C9.383,30.455 10.880,28.948 12.715,28.948 ZM12.715,34.445 C13.890,34.445 14.846,33.483 14.846,32.301 C14.846,31.118 13.890,30.157 12.715,30.157 C11.541,30.157 10.585,31.118 10.585,32.301 C10.585,33.483 11.541,34.445 12.715,34.445 ZM47.860,28.948 C49.696,28.948 51.193,30.455 51.193,32.301 C51.193,34.147 49.696,35.654 47.860,35.654 C46.025,35.654 44.528,34.147 44.528,32.301 C44.528,30.455 46.025,28.948 47.860,28.948 ZM47.860,34.445 C49.035,34.445 49.991,33.483 49.991,32.301 C49.991,31.118 49.035,30.157 47.860,30.157 C46.686,30.157 45.730,31.118 45.730,32.301 C45.730,33.483 46.686,34.445 47.860,34.445 Z"/>
</symbol>
<symbol id="icon-gear" viewBox="0 0 57 58">
<path 
 d="M53.256,41.194 C51.517,44.188 49.296,46.718 46.760,48.748 C44.248,50.754 41.426,52.266 38.439,53.247 L39.252,56.501 C39.364,56.786 39.364,57.046 39.290,57.269 C39.243,57.409 39.169,57.530 39.071,57.629 C38.980,57.722 38.869,57.798 38.745,57.852 C38.455,57.982 38.079,57.996 37.715,57.869 L27.153,54.190 C26.887,54.097 26.629,53.995 26.410,53.858 C26.127,53.682 25.919,53.453 25.838,53.136 L25.835,53.134 C25.758,52.819 25.835,52.513 26.000,52.222 C26.127,51.992 26.306,51.776 26.498,51.567 L34.032,43.172 C34.291,42.885 34.628,42.714 34.944,42.683 C35.078,42.672 35.209,42.683 35.334,42.720 C35.465,42.762 35.589,42.830 35.697,42.929 C35.865,43.091 35.986,43.317 36.023,43.619 L36.716,46.376 C38.819,45.635 40.803,44.534 42.576,43.101 C44.412,41.613 46.017,39.764 47.285,37.584 C50.077,32.787 50.696,27.287 49.441,22.276 C49.202,21.320 48.893,20.384 48.520,19.472 C48.469,19.321 48.496,19.153 48.590,19.022 C48.694,18.886 48.863,18.813 49.034,18.835 C49.202,18.858 49.347,18.974 49.411,19.136 C49.794,20.079 50.114,21.049 50.359,22.037 C51.678,27.287 51.029,33.051 48.102,38.077 C46.774,40.360 45.092,42.294 43.168,43.855 C42.172,44.661 41.116,45.364 40.009,45.964 L40.016,45.964 C38.788,46.636 37.480,47.181 36.107,47.593 L36.047,47.613 C35.627,47.736 35.199,47.847 34.769,47.946 L34.772,47.943 C34.604,47.987 34.426,47.933 34.308,47.805 C34.187,47.675 34.147,47.493 34.200,47.326 C34.247,47.174 34.365,47.058 34.506,47.013 C34.947,46.914 35.381,46.801 35.811,46.674 L35.098,43.838 C35.058,43.553 34.950,43.581 34.732,43.824 L27.194,52.216 C27.042,52.386 26.901,52.554 26.817,52.702 C26.770,52.784 26.746,52.852 26.756,52.898 L26.753,52.898 C26.767,52.939 26.820,52.986 26.901,53.034 C27.042,53.124 27.244,53.202 27.459,53.277 L38.025,56.957 C38.331,57.063 38.435,57.033 38.338,56.761 L37.406,53.041 C37.302,52.622 37.386,52.568 37.729,52.462 C40.763,51.526 43.635,50.020 46.175,47.987 C48.620,46.036 50.756,43.594 52.438,40.700 C56.074,34.449 56.882,27.290 55.247,20.764 C55.159,20.412 55.062,20.059 54.958,19.708 L54.958,19.705 L54.934,19.630 C54.904,19.479 54.944,19.321 55.045,19.204 C55.166,19.068 55.351,19.013 55.526,19.061 C55.671,19.098 55.785,19.204 55.842,19.341 C55.960,19.736 56.068,20.130 56.165,20.524 C57.861,27.290 57.026,34.713 53.256,41.194 ZM53.545,18.550 C53.286,18.550 53.014,18.498 52.738,18.437 L41.839,15.981 C41.466,15.895 41.153,15.686 40.971,15.419 C40.891,15.310 40.837,15.186 40.807,15.059 C40.773,14.922 40.770,14.778 40.803,14.634 C40.854,14.404 40.985,14.181 41.224,13.996 L43.222,12.011 C41.540,10.522 39.612,9.319 37.507,8.476 C35.324,7.598 32.952,7.103 30.466,7.073 C24.994,7.008 20.012,9.213 16.383,12.824 C15.693,13.512 15.051,14.253 14.462,15.041 C14.358,15.161 14.203,15.223 14.045,15.203 C13.877,15.182 13.729,15.066 13.665,14.905 C13.601,14.743 13.625,14.559 13.732,14.421 L13.729,14.421 C14.338,13.613 15.004,12.844 15.720,12.134 C19.524,8.345 24.741,6.037 30.477,6.106 C33.080,6.137 35.566,6.654 37.853,7.573 C39.034,8.050 40.161,8.629 41.224,9.305 L41.220,9.302 C42.404,10.052 43.524,10.931 44.557,11.936 L44.608,11.983 L44.604,11.983 C44.920,12.291 45.227,12.611 45.526,12.943 L45.522,12.943 C45.644,13.071 45.691,13.252 45.640,13.424 C45.590,13.591 45.452,13.719 45.284,13.755 C45.132,13.790 44.978,13.746 44.863,13.640 C44.560,13.300 44.248,12.974 43.925,12.659 L41.873,14.706 C41.651,14.884 41.728,14.966 42.045,15.039 L52.943,17.493 C53.165,17.544 53.377,17.586 53.545,17.586 C53.639,17.586 53.710,17.572 53.740,17.541 L53.740,17.544 C53.770,17.513 53.784,17.438 53.784,17.345 C53.790,17.175 53.754,16.959 53.710,16.729 L51.554,5.564 C51.493,5.242 51.412,5.163 51.234,5.383 L48.540,8.067 C48.234,8.368 48.146,8.321 47.884,8.071 C45.570,5.862 42.855,4.079 39.861,2.853 C36.979,1.673 33.834,1.003 30.537,0.966 C23.409,0.880 16.921,3.750 12.198,8.455 C11.939,8.712 11.690,8.973 11.445,9.236 L11.442,9.240 L11.388,9.298 C11.277,9.401 11.122,9.445 10.974,9.415 C10.796,9.377 10.654,9.240 10.607,9.062 C10.570,8.914 10.600,8.760 10.691,8.640 C10.967,8.341 11.246,8.050 11.532,7.762 C16.433,2.883 23.157,-0.090 30.547,-0.001 C33.962,0.036 37.221,0.729 40.211,1.956 C43.175,3.170 45.872,4.906 48.197,7.055 L50.554,4.707 C50.740,4.468 50.962,4.337 51.187,4.293 C51.328,4.261 51.469,4.268 51.604,4.306 C51.729,4.337 51.846,4.399 51.954,4.480 C52.209,4.673 52.411,4.998 52.485,5.380 L54.638,16.544 C54.695,16.825 54.739,17.106 54.729,17.366 C54.722,17.707 54.631,18.004 54.403,18.234 C54.171,18.463 53.878,18.546 53.545,18.550 ZM36.888,38.249 C37.009,38.609 36.972,38.986 36.820,39.305 C36.666,39.628 36.397,39.885 36.044,40.008 L33.322,40.961 C32.973,41.084 32.599,41.047 32.286,40.893 C31.974,40.735 31.718,40.461 31.597,40.101 L31.566,40.011 L31.445,39.644 L30.907,38.050 C30.894,38.021 30.836,37.985 30.749,37.937 C30.473,37.793 30.039,37.704 29.595,37.683 C29.151,37.659 28.711,37.701 28.418,37.810 C28.324,37.847 28.267,37.872 28.260,37.886 L27.675,39.107 L27.678,39.107 L27.345,39.802 L27.328,39.829 C27.163,40.172 26.878,40.416 26.548,40.529 C26.222,40.645 25.848,40.632 25.512,40.463 L22.929,39.178 C22.592,39.010 22.353,38.719 22.242,38.383 C22.128,38.050 22.141,37.669 22.306,37.326 L22.347,37.244 L23.238,35.386 C23.251,35.358 23.238,35.283 23.204,35.183 C23.110,34.878 22.865,34.508 22.565,34.172 C22.266,33.832 21.926,33.548 21.647,33.417 C21.566,33.377 21.509,33.355 21.486,33.355 L19.504,34.048 L19.474,34.059 C19.121,34.183 18.751,34.148 18.438,33.990 C18.125,33.832 17.870,33.559 17.748,33.198 L16.813,30.428 C16.692,30.068 16.729,29.690 16.881,29.368 C17.036,29.049 17.308,28.788 17.658,28.665 L17.745,28.638 L19.669,27.962 C19.696,27.948 19.736,27.890 19.780,27.804 C19.925,27.520 20.009,27.081 20.029,26.625 C20.052,26.172 20.012,25.723 19.904,25.425 C19.871,25.332 19.844,25.271 19.831,25.263 L18.256,24.482 L17.954,24.331 L17.923,24.317 L17.923,24.313 C17.587,24.145 17.348,23.854 17.237,23.522 C17.123,23.185 17.136,22.808 17.301,22.461 L18.563,19.832 C18.727,19.486 19.013,19.242 19.343,19.129 C19.669,19.016 20.043,19.026 20.379,19.194 L20.460,19.236 L22.283,20.145 C22.310,20.157 22.384,20.145 22.484,20.109 C22.780,20.015 23.147,19.763 23.473,19.459 C23.806,19.153 24.086,18.810 24.217,18.522 C24.254,18.440 24.274,18.382 24.277,18.358 L23.595,16.338 L23.584,16.307 C23.463,15.950 23.500,15.570 23.652,15.251 C23.806,14.931 24.075,14.671 24.429,14.547 L27.147,13.599 C27.500,13.475 27.873,13.509 28.186,13.663 C28.499,13.822 28.754,14.099 28.876,14.458 L28.902,14.544 L28.973,14.754 L29.565,16.506 C29.579,16.537 29.636,16.574 29.723,16.620 C29.999,16.766 30.433,16.852 30.877,16.876 C31.321,16.897 31.762,16.856 32.054,16.746 C32.148,16.711 32.206,16.684 32.212,16.670 L33.131,14.757 L33.127,14.757 L33.144,14.726 C33.309,14.383 33.595,14.140 33.924,14.027 C34.251,13.911 34.624,13.924 34.960,14.092 L37.544,15.381 C37.880,15.549 38.119,15.841 38.230,16.174 C38.344,16.506 38.331,16.886 38.166,17.230 L38.126,17.315 L37.833,17.922 L37.234,19.170 C37.221,19.201 37.234,19.273 37.268,19.376 C37.362,19.677 37.608,20.051 37.907,20.387 C38.207,20.724 38.546,21.011 38.825,21.142 C38.906,21.179 38.963,21.204 38.987,21.204 L40.998,20.497 C41.352,20.373 41.722,20.412 42.034,20.566 C42.347,20.724 42.603,21.001 42.724,21.357 L43.659,24.132 C43.780,24.488 43.743,24.869 43.592,25.188 C43.437,25.507 43.164,25.767 42.815,25.891 L42.727,25.922 L42.549,25.984 L40.803,26.594 C40.776,26.607 40.736,26.665 40.692,26.755 C40.548,27.037 40.463,27.478 40.443,27.932 C40.420,28.388 40.460,28.833 40.568,29.131 C40.601,29.227 40.628,29.286 40.642,29.293 L42.519,30.228 L42.549,30.242 C42.885,30.410 43.124,30.702 43.235,31.038 C43.350,31.370 43.336,31.751 43.171,32.094 L41.910,34.727 C41.745,35.069 41.459,35.314 41.129,35.426 C40.803,35.543 40.430,35.529 40.094,35.362 L40.013,35.320 L39.865,35.248 L38.190,34.412 C38.163,34.401 38.089,34.415 37.988,34.446 C37.692,34.541 37.325,34.793 36.999,35.098 C36.666,35.403 36.387,35.750 36.255,36.034 C36.218,36.116 36.198,36.178 36.195,36.198 L36.878,38.218 L36.888,38.249 ZM36.363,34.385 C36.784,33.993 37.275,33.668 37.698,33.527 C38.018,33.425 38.324,33.414 38.583,33.537 L38.593,33.540 L40.427,34.456 L40.514,34.497 C40.612,34.545 40.722,34.549 40.823,34.515 C40.924,34.477 41.012,34.405 41.059,34.302 L42.324,31.672 C42.371,31.569 42.374,31.452 42.341,31.350 C42.303,31.247 42.233,31.158 42.132,31.110 L42.105,31.096 L40.218,30.154 L40.208,30.149 C39.969,30.023 39.794,29.779 39.680,29.464 C39.528,29.049 39.468,28.459 39.495,27.883 C39.525,27.303 39.643,26.718 39.851,26.313 C40.006,26.011 40.211,25.785 40.481,25.686 L40.490,25.682 L42.421,25.007 L42.515,24.972 C42.616,24.935 42.697,24.859 42.741,24.764 C42.788,24.671 42.798,24.554 42.761,24.444 L41.826,21.674 C41.789,21.563 41.715,21.477 41.621,21.433 C41.526,21.386 41.412,21.374 41.305,21.413 L39.290,22.119 L39.283,22.119 C39.024,22.204 38.731,22.157 38.432,22.020 C38.035,21.831 37.584,21.461 37.204,21.032 C36.824,20.603 36.504,20.106 36.366,19.671 C36.266,19.345 36.255,19.036 36.373,18.769 L36.380,18.759 L37.275,16.890 L37.319,16.800 C37.365,16.701 37.369,16.587 37.332,16.486 C37.298,16.383 37.228,16.297 37.127,16.245 L34.544,14.960 C34.446,14.908 34.331,14.905 34.231,14.943 C34.130,14.976 34.042,15.048 33.995,15.151 L33.982,15.179 L33.978,15.179 L33.057,17.102 L33.053,17.112 C32.929,17.361 32.690,17.538 32.381,17.655 C31.974,17.809 31.395,17.867 30.826,17.840 C30.261,17.809 29.686,17.689 29.289,17.477 C28.993,17.322 28.771,17.109 28.674,16.836 L28.670,16.825 L28.008,14.860 L27.974,14.764 C27.937,14.658 27.863,14.576 27.769,14.532 C27.675,14.483 27.564,14.473 27.456,14.511 L24.738,15.463 C24.631,15.501 24.546,15.580 24.503,15.676 C24.456,15.769 24.446,15.884 24.482,15.995 L24.493,16.026 L25.175,18.049 L25.175,18.059 C25.260,18.320 25.213,18.618 25.075,18.923 C24.893,19.328 24.526,19.788 24.109,20.175 C23.689,20.562 23.198,20.888 22.774,21.028 C22.454,21.135 22.148,21.142 21.889,21.022 L21.879,21.015 L20.046,20.102 L19.965,20.062 C19.864,20.010 19.750,20.007 19.649,20.045 C19.548,20.079 19.460,20.151 19.414,20.253 L18.148,22.887 C18.101,22.987 18.098,23.104 18.132,23.205 C18.169,23.308 18.236,23.395 18.334,23.447 L18.340,23.447 L18.367,23.461 L18.367,23.464 L20.254,24.403 L20.265,24.406 C20.503,24.533 20.678,24.776 20.793,25.092 C20.944,25.510 21.005,26.100 20.977,26.677 C20.947,27.256 20.826,27.839 20.621,28.244 C20.466,28.549 20.258,28.772 19.992,28.870 L19.985,28.874 L19.982,28.874 L19.982,28.877 L18.051,29.550 L17.967,29.581 C17.859,29.618 17.776,29.697 17.732,29.793 C17.685,29.890 17.674,30.002 17.712,30.112 L18.646,32.882 C18.684,32.992 18.758,33.078 18.852,33.126 C18.946,33.171 19.060,33.181 19.168,33.143 L19.195,33.134 L21.183,32.440 L21.190,32.437 C21.448,32.351 21.741,32.398 22.041,32.539 C22.437,32.725 22.888,33.098 23.268,33.523 C23.648,33.952 23.968,34.453 24.106,34.888 C24.207,35.211 24.217,35.523 24.099,35.787 L24.092,35.797 L23.198,37.666 L23.157,37.752 C23.107,37.851 23.103,37.968 23.140,38.071 C23.174,38.174 23.245,38.263 23.346,38.311 L25.929,39.600 C26.027,39.648 26.141,39.651 26.242,39.617 C26.339,39.583 26.427,39.510 26.474,39.412 L26.477,39.408 L26.477,39.404 L26.491,39.376 L27.416,37.453 L27.419,37.443 C27.543,37.200 27.782,37.021 28.092,36.905 C28.499,36.751 29.077,36.689 29.646,36.719 C30.211,36.747 30.786,36.871 31.183,37.080 C31.479,37.237 31.701,37.450 31.799,37.721 L31.802,37.730 L32.465,39.699 L32.498,39.792 C32.535,39.899 32.609,39.980 32.704,40.025 C32.797,40.073 32.909,40.083 33.016,40.046 L35.734,39.096 C35.842,39.058 35.926,38.979 35.969,38.884 C36.017,38.787 36.027,38.674 35.990,38.564 L35.980,38.534 L35.297,36.511 L35.297,36.500 C35.213,36.237 35.260,35.938 35.398,35.632 C35.579,35.228 35.946,34.768 36.363,34.385 ZM32.327,33.486 C30.645,34.073 28.889,33.911 27.409,33.171 C25.929,32.434 24.725,31.120 24.149,29.409 C23.571,27.698 23.732,25.908 24.456,24.395 C25.179,22.887 26.467,21.659 28.146,21.073 C29.824,20.484 31.580,20.648 33.063,21.386 C34.544,22.123 35.748,23.435 36.323,25.147 C36.902,26.862 36.740,28.651 36.017,30.160 C35.293,31.668 34.005,32.896 32.327,33.486 ZM35.428,25.463 C34.933,23.998 33.908,22.880 32.646,22.249 C31.385,21.622 29.888,21.485 28.455,21.989 C27.019,22.489 25.919,23.536 25.303,24.821 C24.688,26.107 24.553,27.633 25.044,29.097 C25.539,30.558 26.565,31.680 27.826,32.306 C29.087,32.933 30.584,33.071 32.017,32.571 C33.453,32.066 34.553,31.020 35.169,29.734 C35.785,28.452 35.919,26.922 35.428,25.463 ZM11.166,11.067 C11.297,11.293 11.388,11.559 11.475,11.832 L14.835,22.684 C14.950,23.056 14.930,23.435 14.795,23.730 C14.738,23.857 14.664,23.968 14.570,24.057 C14.469,24.157 14.348,24.228 14.210,24.273 C13.988,24.345 13.736,24.337 13.460,24.217 L10.772,23.449 C10.351,25.675 10.291,27.979 10.624,30.262 C10.971,32.625 11.738,34.967 12.955,37.176 C15.636,42.041 19.999,45.336 24.883,46.735 C25.815,46.999 26.767,47.199 27.725,47.326 C27.880,47.355 28.011,47.463 28.072,47.609 C28.139,47.772 28.116,47.956 28.011,48.093 C27.907,48.234 27.735,48.302 27.567,48.279 C26.575,48.148 25.589,47.943 24.627,47.665 C19.508,46.204 14.936,42.748 12.128,37.652 C10.853,35.337 10.049,32.885 9.689,30.407 C9.501,29.128 9.430,27.842 9.474,26.563 L9.470,26.570 C9.518,25.151 9.706,23.720 10.042,22.308 L10.056,22.239 L10.059,22.239 C10.163,21.806 10.281,21.378 10.412,20.946 L10.415,20.950 C10.459,20.782 10.594,20.648 10.762,20.610 C10.930,20.569 11.109,20.624 11.226,20.755 C11.327,20.874 11.368,21.032 11.334,21.184 C11.199,21.622 11.078,22.061 10.974,22.503 L13.736,23.292 C13.998,23.398 14.031,23.288 13.934,22.977 L10.570,12.124 C10.503,11.904 10.432,11.695 10.348,11.547 C10.301,11.466 10.254,11.410 10.214,11.396 C10.173,11.387 10.106,11.410 10.022,11.455 C9.874,11.537 9.709,11.678 9.538,11.829 L1.129,19.314 C0.886,19.530 0.859,19.640 1.139,19.691 L4.765,20.727 C5.172,20.844 5.175,20.946 5.094,21.302 C4.374,24.451 4.216,27.736 4.674,30.998 C5.111,34.131 6.117,37.237 7.732,40.169 C11.223,46.506 16.904,50.795 23.265,52.616 C23.611,52.716 23.958,52.805 24.304,52.890 L24.308,52.890 L24.385,52.907 C24.526,52.956 24.641,53.069 24.691,53.217 C24.748,53.392 24.701,53.583 24.573,53.714 C24.469,53.823 24.321,53.872 24.176,53.851 C23.783,53.757 23.396,53.659 23.009,53.549 C16.413,51.663 10.523,47.212 6.904,40.643 C5.232,37.611 4.189,34.389 3.735,31.133 C3.284,27.910 3.412,24.663 4.075,21.535 L0.900,20.627 C0.604,20.583 0.385,20.453 0.230,20.278 C0.136,20.164 0.072,20.037 0.035,19.900 C0.002,19.778 -0.009,19.640 0.008,19.502 C0.045,19.181 0.220,18.845 0.506,18.587 L8.915,11.102 C9.127,10.914 9.342,10.735 9.568,10.608 C9.861,10.450 10.157,10.379 10.469,10.468 C10.779,10.553 10.997,10.773 11.166,11.067 Z"/>
</symbol>
<symbol id="icon-awards" viewBox="0 0 48 54">
<path
 d="M46.925,7.595 L34.811,26.415 C37.942,29.325 39.906,33.475 39.906,38.076 C39.906,46.856 32.765,53.998 23.988,53.998 C15.212,53.998 8.071,46.856 8.071,38.076 C8.071,33.473 10.036,29.323 13.168,26.414 L1.074,7.595 C0.977,7.443 0.944,7.259 0.982,7.082 C1.021,6.906 1.129,6.752 1.281,6.655 L11.596,0.108 C11.910,-0.092 12.327,-0.001 12.529,0.313 L24.003,18.164 L35.471,0.313 C35.672,-0.001 36.089,-0.092 36.404,0.108 L46.718,6.655 C46.871,6.752 46.978,6.906 47.017,7.082 C47.056,7.259 47.023,7.443 46.925,7.595 ZM9.427,38.076 C9.427,46.108 15.959,52.643 23.988,52.643 C32.018,52.643 38.550,46.108 38.550,38.076 C38.550,30.044 32.018,23.510 23.988,23.510 C15.959,23.510 9.427,30.044 9.427,38.076 ZM11.753,1.613 L5.877,5.343 L15.793,20.774 C15.996,21.089 15.904,21.508 15.590,21.711 C15.476,21.783 15.349,21.819 15.224,21.819 C15.001,21.819 14.782,21.708 14.653,21.507 L4.733,6.070 L2.583,7.435 L14.210,25.528 C16.235,23.944 18.651,22.840 21.288,22.388 L23.197,19.417 L11.753,1.613 ZM39.299,3.552 L29.545,18.729 C29.416,18.931 29.197,19.040 28.974,19.040 C28.849,19.040 28.722,19.005 28.609,18.932 C28.294,18.731 28.203,18.310 28.405,17.995 L38.155,2.825 L36.246,1.613 L23.030,22.186 C23.347,22.167 23.666,22.154 23.988,22.154 C27.674,22.154 31.069,23.418 33.770,25.529 L45.416,7.435 L39.299,3.552 ZM24.666,27.025 L24.666,29.508 C25.739,29.592 26.758,29.872 27.685,30.317 L28.926,28.167 C29.113,27.842 29.527,27.732 29.851,27.918 C30.175,28.105 30.286,28.521 30.099,28.845 L28.857,30.996 C29.721,31.593 30.470,32.342 31.066,33.206 L33.217,31.964 C33.542,31.776 33.956,31.888 34.143,32.212 C34.330,32.536 34.219,32.950 33.895,33.138 L31.746,34.379 C32.190,35.306 32.470,36.325 32.554,37.399 L35.036,37.399 C35.411,37.399 35.714,37.702 35.714,38.076 C35.714,38.450 35.411,38.753 35.036,38.753 L32.554,38.753 C32.470,39.827 32.190,40.846 31.746,41.774 L33.895,43.014 C34.219,43.202 34.330,43.617 34.143,43.940 C34.017,44.159 33.789,44.279 33.555,44.279 C33.440,44.279 33.324,44.250 33.217,44.189 L31.066,42.947 C30.470,43.811 29.721,44.560 28.857,45.156 L30.099,47.307 C30.286,47.632 30.175,48.047 29.851,48.234 C29.744,48.296 29.628,48.324 29.513,48.324 C29.279,48.324 29.051,48.203 28.926,47.986 L27.685,45.837 C26.758,46.280 25.739,46.560 24.666,46.644 L24.666,49.127 C24.666,49.502 24.363,49.805 23.988,49.805 C23.614,49.805 23.311,49.502 23.311,49.127 L23.311,46.644 C22.238,46.560 21.219,46.280 20.292,45.837 L19.052,47.986 C18.926,48.203 18.698,48.324 18.464,48.324 C18.349,48.324 18.233,48.296 18.126,48.234 C17.802,48.047 17.691,47.632 17.878,47.307 L19.120,45.156 C18.256,44.560 17.507,43.811 16.911,42.947 L14.760,44.189 C14.653,44.250 14.537,44.279 14.422,44.279 C14.187,44.279 13.960,44.159 13.834,43.940 C13.647,43.617 13.758,43.202 14.082,43.014 L16.231,41.774 C15.787,40.846 15.507,39.827 15.423,38.753 L12.941,38.753 C12.567,38.753 12.263,38.450 12.263,38.076 C12.263,37.702 12.567,37.399 12.941,37.399 L15.423,37.399 C15.507,36.325 15.787,35.306 16.231,34.379 L14.082,33.138 C13.758,32.950 13.647,32.536 13.834,32.212 C14.021,31.888 14.436,31.776 14.760,31.964 L16.911,33.206 C17.507,32.342 18.256,31.593 19.120,30.996 L17.878,28.845 C17.691,28.521 17.802,28.105 18.126,27.918 C18.450,27.732 18.864,27.842 19.052,28.167 L20.292,30.317 C21.219,29.872 22.238,29.592 23.311,29.508 L23.311,27.025 C23.311,26.652 23.614,26.348 23.988,26.348 C24.363,26.348 24.666,26.652 24.666,27.025 ZM16.749,38.076 C16.749,42.069 19.997,45.317 23.988,45.317 C27.980,45.317 31.228,42.069 31.228,38.076 C31.228,34.083 27.980,30.834 23.988,30.834 C19.997,30.834 16.749,34.083 16.749,38.076 Z"/>
</symbol>
<symbol id="icon-hands" viewBox="0 0 59 46">
<path
 d="M58.881,16.077 C58.672,15.770 58.251,15.690 57.944,15.897 L54.801,18.007 C52.512,19.555 49.772,22.492 49.414,23.082 C48.743,24.203 47.768,25.760 46.710,27.216 C46.649,27.132 46.585,27.047 46.523,26.964 C46.460,26.878 46.397,26.793 46.332,26.705 C46.164,26.481 45.992,26.255 45.815,26.029 C45.784,25.989 45.754,25.950 45.724,25.910 C43.425,22.977 40.531,19.995 38.468,18.022 C38.446,17.999 38.423,17.978 38.400,17.957 C38.233,17.797 38.072,17.645 37.917,17.499 C37.881,17.465 37.843,17.430 37.808,17.397 C37.632,17.232 37.462,17.076 37.305,16.932 C37.042,16.709 36.786,16.488 36.536,16.270 C36.489,16.229 36.445,16.189 36.399,16.148 C36.200,15.976 36.004,15.803 35.813,15.634 C35.664,15.501 35.520,15.372 35.375,15.242 C35.295,15.170 35.213,15.097 35.134,15.025 C34.025,14.024 33.034,13.090 32.119,12.228 C32.074,12.184 32.026,12.138 31.980,12.096 L31.752,11.879 C31.748,11.876 31.745,11.873 31.741,11.871 L31.578,11.716 C31.543,11.684 31.505,11.655 31.465,11.631 C30.783,11.088 30.283,11.070 29.579,11.093 C28.088,11.138 26.742,12.542 25.184,14.167 C24.039,15.361 22.856,16.596 21.568,17.334 C20.487,17.954 19.470,18.018 18.913,17.499 C18.331,16.959 18.088,15.623 19.149,13.494 C20.653,10.475 24.266,6.032 27.589,5.600 C31.060,5.151 37.421,4.871 40.422,5.182 C42.804,5.431 44.586,4.503 46.082,3.602 C47.489,2.692 48.977,1.764 48.992,1.755 C49.308,1.558 49.403,1.147 49.205,0.834 C49.008,0.520 48.591,0.425 48.275,0.622 C48.260,0.631 46.762,1.563 45.363,2.469 C43.718,3.461 42.343,4.037 40.563,3.852 C37.474,3.530 30.958,3.814 27.415,4.273 C26.087,4.445 24.820,5.068 23.663,5.916 C21.808,5.194 20.297,4.684 18.961,4.235 C17.244,3.657 15.760,3.159 14.064,2.382 C13.261,2.015 11.145,0.624 10.397,0.119 C10.089,-0.087 9.669,-0.009 9.459,0.296 C9.250,0.602 9.329,1.019 9.638,1.227 C9.751,1.303 12.430,3.108 13.498,3.597 C15.260,4.404 16.774,4.912 18.527,5.503 C19.677,5.889 20.959,6.321 22.475,6.895 C20.263,8.919 18.601,11.572 17.939,12.901 C16.760,15.267 16.779,17.352 17.990,18.476 C18.998,19.413 20.628,19.418 22.243,18.493 C23.700,17.659 25.008,16.294 26.162,15.089 C27.401,13.796 28.683,12.459 29.621,12.431 C30.218,12.412 30.349,12.410 30.801,12.831 L31.174,13.182 C31.254,13.258 31.337,13.337 31.419,13.414 C32.090,14.048 32.802,14.716 33.571,15.421 C33.592,15.440 33.614,15.460 33.635,15.479 C33.825,15.653 34.018,15.828 34.216,16.008 C34.363,16.141 34.516,16.276 34.667,16.412 C34.745,16.482 34.821,16.550 34.900,16.621 C35.380,17.047 35.881,17.484 36.408,17.932 C36.564,18.075 36.732,18.231 36.909,18.396 C36.942,18.425 36.978,18.459 37.011,18.492 C37.163,18.634 37.318,18.780 37.481,18.936 C37.508,18.962 37.537,18.989 37.564,19.015 C37.744,19.188 37.929,19.367 38.121,19.555 C38.133,19.566 38.145,19.577 38.156,19.588 C39.673,21.071 41.529,22.995 43.228,24.985 C43.247,25.006 43.265,25.028 43.284,25.050 C43.488,25.291 43.689,25.531 43.888,25.772 C43.975,25.877 44.060,25.983 44.145,26.088 C44.273,26.246 44.400,26.403 44.524,26.560 C44.636,26.700 44.745,26.842 44.853,26.982 C44.948,27.105 45.042,27.226 45.134,27.349 C45.251,27.505 45.366,27.660 45.479,27.815 C45.560,27.925 45.639,28.035 45.717,28.144 C45.827,28.298 45.934,28.452 46.039,28.604 C46.375,29.095 46.687,29.577 46.955,30.040 C47.847,31.581 46.814,33.536 45.760,34.299 C45.301,34.629 44.650,34.910 44.151,34.366 C42.668,32.749 39.394,29.533 36.924,27.788 C36.620,27.573 36.199,27.644 35.983,27.945 C35.766,28.246 35.837,28.664 36.141,28.877 C38.073,30.243 40.529,32.557 42.161,34.224 C42.163,34.225 42.164,34.228 42.166,34.231 C43.367,35.469 43.028,36.966 42.160,37.898 C41.492,38.617 40.449,39.042 39.626,38.374 C39.543,38.307 39.447,38.227 39.346,38.140 C39.337,38.133 39.328,38.124 39.319,38.117 C38.242,37.198 36.204,35.299 34.339,33.467 C34.073,33.206 33.646,33.210 33.384,33.472 C33.122,33.735 33.124,34.158 33.389,34.419 C35.293,36.287 37.311,38.169 38.426,39.121 C39.326,40.218 38.478,41.292 38.193,41.599 C37.432,42.416 36.075,42.889 35.060,42.161 C34.722,41.918 34.362,41.652 33.987,41.367 C33.979,41.360 33.974,41.351 33.966,41.344 C33.927,41.309 33.885,41.281 33.842,41.256 C32.914,40.547 31.885,39.719 30.760,38.776 C30.475,38.537 30.049,38.573 29.809,38.856 C29.568,39.138 29.604,39.559 29.889,39.798 C31.062,40.782 32.136,41.644 33.101,42.379 C33.184,42.475 33.278,42.676 33.022,43.121 C32.497,44.034 31.102,44.837 30.400,44.626 C28.831,44.156 26.994,42.885 25.505,41.763 C26.432,40.465 27.183,39.087 27.442,38.165 C27.809,36.865 26.890,35.509 25.908,34.673 C25.249,34.114 24.311,33.582 23.385,33.471 C23.582,32.448 23.074,31.254 21.995,30.281 C21.185,29.552 20.261,29.127 19.405,29.046 C19.567,27.891 18.935,26.568 18.105,25.636 C17.169,24.583 16.031,23.997 14.942,23.962 C15.027,23.143 14.811,22.261 14.283,21.486 C13.386,20.169 11.937,19.602 10.500,20.003 C9.665,20.236 8.251,21.006 6.857,21.944 C5.548,20.049 4.031,19.019 2.154,17.751 C1.803,17.514 1.438,17.267 1.057,17.002 C0.752,16.791 0.331,16.863 0.117,17.168 C-0.097,17.471 -0.022,17.888 0.284,18.099 C0.669,18.366 1.038,18.617 1.394,18.856 C3.223,20.093 4.589,21.020 5.759,22.722 C4.326,23.793 3.097,24.944 2.806,25.728 C2.116,27.583 2.978,29.655 4.185,30.743 C4.749,31.252 5.378,31.533 5.994,31.578 C5.933,33.200 6.937,35.136 8.198,36.353 C8.983,37.111 9.802,37.508 10.542,37.508 C10.594,37.508 10.644,37.497 10.695,37.492 C10.722,38.773 11.557,40.147 12.573,41.104 C13.512,41.987 14.489,42.452 15.329,42.452 C15.736,42.452 16.110,42.341 16.433,42.119 C16.546,42.546 16.793,42.978 17.177,43.393 C18.124,44.417 19.811,45.259 21.147,45.259 C21.483,45.259 21.798,45.205 22.072,45.088 C22.880,44.743 23.817,43.870 24.685,42.826 C26.268,44.018 28.239,45.377 30.010,45.907 C30.208,45.967 30.416,45.994 30.631,45.994 C31.965,45.994 33.535,44.932 34.195,43.784 C34.283,43.629 34.348,43.478 34.402,43.325 C34.975,43.699 35.590,43.871 36.199,43.871 C37.330,43.871 38.434,43.311 39.183,42.507 C39.883,41.757 40.212,40.872 40.165,40.017 C40.294,40.035 40.423,40.049 40.553,40.049 C41.455,40.049 42.390,39.626 43.152,38.806 C43.842,38.064 44.310,37.034 44.296,35.952 C44.460,35.990 44.627,36.013 44.800,36.013 C45.366,36.013 45.970,35.803 46.555,35.381 C48.273,34.139 49.314,31.429 48.125,29.373 C47.939,29.053 47.732,28.723 47.514,28.389 C48.713,26.784 49.828,25.012 50.572,23.769 C50.804,23.392 53.381,20.586 55.559,19.114 L58.700,17.006 C59.009,16.799 59.090,16.383 58.881,16.077 ZM4.072,26.191 C4.479,25.095 9.050,21.798 10.867,21.291 C11.061,21.238 11.243,21.212 11.415,21.212 C12.382,21.212 12.984,21.969 13.164,22.235 C13.632,22.921 13.849,23.939 13.280,24.669 C12.217,26.033 8.562,29.201 6.549,30.163 C5.979,30.436 5.392,30.022 5.093,29.753 C4.229,28.975 3.611,27.430 4.072,26.191 ZM9.139,35.394 C8.023,34.317 7.091,32.413 7.395,31.235 C9.685,30.037 13.225,26.929 14.348,25.488 C14.384,25.441 14.409,25.389 14.442,25.340 C15.408,25.104 16.431,25.776 17.093,26.520 C17.911,27.441 18.287,28.588 17.966,29.187 C16.918,31.144 12.612,35.294 10.767,36.123 C10.400,36.290 9.776,36.010 9.139,35.394 ZM13.502,40.133 C12.505,39.194 11.730,37.765 12.164,36.874 C14.321,35.498 17.475,32.345 18.788,30.409 C19.405,30.247 20.319,30.580 21.088,31.273 C21.842,31.952 22.225,32.779 22.039,33.331 C21.383,35.282 17.623,39.646 15.665,41.019 C15.265,41.299 14.337,40.918 13.502,40.133 ZM21.538,43.859 C20.881,44.141 19.130,43.525 18.171,42.488 C17.934,42.232 17.567,41.749 17.765,41.381 C17.840,41.243 17.858,41.092 17.832,40.949 C19.581,39.311 21.781,36.733 22.836,34.810 C23.395,34.704 24.272,35.047 25.029,35.690 C25.854,36.391 26.302,37.241 26.143,37.804 C25.645,39.571 22.993,43.238 21.538,43.859 Z"/>
</symbol>
<symbol id="icon-idea" viewBox="0 0 53 57">
<path
 d="M52.172,27.303 L47.871,27.303 C47.414,27.303 47.044,26.934 47.044,26.478 C47.044,26.023 47.414,25.653 47.871,25.653 L52.172,25.653 C52.629,25.653 52.999,26.023 52.999,26.478 C52.999,26.934 52.629,27.303 52.172,27.303 ZM42.188,12.010 C42.026,12.171 41.815,12.252 41.603,12.252 C41.391,12.252 41.180,12.170 41.018,12.009 C40.696,11.687 40.696,11.165 41.019,10.843 L44.098,7.773 C44.421,7.451 44.945,7.451 45.268,7.773 C45.590,8.095 45.590,8.618 45.267,8.940 L42.188,12.010 ZM36.329,39.647 C35.269,40.433 34.636,41.687 34.636,43.003 L34.636,52.415 C34.636,52.606 34.568,52.779 34.459,52.919 L34.462,52.922 L32.541,55.390 C31.745,56.413 30.545,57.000 29.248,57.000 L23.834,57.000 C22.537,57.000 21.336,56.413 20.541,55.390 L18.620,52.922 L18.622,52.920 C18.513,52.780 18.445,52.606 18.445,52.415 L18.445,43.003 C18.445,41.687 17.812,40.433 16.752,39.647 C12.591,36.565 10.108,31.643 10.108,26.483 C10.108,17.444 17.479,10.090 26.541,10.090 C35.602,10.090 42.974,17.444 42.974,26.483 C42.974,31.643 40.490,36.565 36.329,39.647 ZM21.847,54.379 C22.327,54.996 23.052,55.349 23.834,55.349 L29.248,55.349 C30.030,55.349 30.755,54.996 31.235,54.379 L32.121,53.241 L20.961,53.241 L21.847,54.379 ZM20.099,51.591 L32.982,51.591 L32.982,49.384 L20.099,49.384 L20.099,51.591 ZM20.099,47.734 L32.982,47.734 L32.982,45.528 L20.099,45.528 L20.099,47.734 ZM26.541,11.740 C18.391,11.740 11.761,18.354 11.761,26.483 C11.761,31.193 13.940,35.509 17.738,38.322 C19.216,39.418 20.099,41.168 20.099,43.003 L20.099,43.878 L32.982,43.878 L32.982,43.003 C32.982,41.168 33.865,39.418 35.343,38.322 C39.142,35.509 41.320,31.193 41.320,26.483 C41.320,18.354 34.690,11.740 26.541,11.740 ZM37.181,26.438 C37.155,26.441 37.130,26.442 37.106,26.442 C36.682,26.442 36.322,26.119 36.283,25.690 C36.232,25.126 36.131,24.562 35.982,24.016 C35.862,23.576 36.122,23.123 36.563,23.004 C37.003,22.884 37.458,23.144 37.578,23.583 C37.752,24.222 37.870,24.882 37.930,25.543 C37.971,25.996 37.635,26.397 37.181,26.438 ZM35.912,21.549 C35.774,21.638 35.619,21.681 35.465,21.681 C35.193,21.681 34.927,21.548 34.769,21.303 C32.953,18.493 29.877,16.815 26.539,16.815 C26.083,16.815 25.712,16.445 25.712,15.990 C25.712,15.534 26.083,15.165 26.539,15.165 C30.442,15.165 34.038,17.125 36.159,20.409 C36.407,20.792 36.296,21.303 35.912,21.549 ZM26.542,6.040 C26.086,6.040 25.716,5.671 25.716,5.216 L25.716,0.824 C25.716,0.369 26.086,-0.001 26.542,-0.001 C26.999,-0.001 27.369,0.369 27.369,0.824 L27.369,5.216 C27.369,5.671 26.999,6.040 26.542,6.040 ZM11.498,12.235 C11.287,12.235 11.075,12.154 10.914,11.993 L7.792,8.879 C7.469,8.557 7.469,8.034 7.792,7.713 C8.115,7.390 8.639,7.391 8.962,7.713 L12.083,10.826 C12.406,11.148 12.406,11.671 12.083,11.993 C11.922,12.154 11.710,12.235 11.498,12.235 ZM10.797,40.874 C11.120,40.551 11.643,40.551 11.966,40.874 C12.289,41.196 12.289,41.718 11.966,42.040 L8.901,45.097 C8.740,45.258 8.528,45.339 8.317,45.339 C8.105,45.339 7.893,45.258 7.732,45.097 C7.409,44.776 7.409,44.253 7.732,43.931 L10.797,40.874 ZM5.216,27.217 L0.827,27.217 C0.370,27.217 0.000,26.848 0.000,26.393 C0.000,25.936 0.370,25.567 0.827,25.567 L5.216,25.567 C5.673,25.567 6.043,25.936 6.043,26.393 C6.043,26.848 5.673,27.217 5.216,27.217 ZM42.186,40.976 L45.207,43.992 C45.530,44.314 45.530,44.836 45.207,45.158 C45.045,45.319 44.834,45.399 44.622,45.399 C44.410,45.399 44.199,45.319 44.037,45.157 L41.016,42.142 C40.693,41.820 40.694,41.298 41.017,40.975 C41.340,40.654 41.863,40.654 42.186,40.976 Z"/>
</symbol>
</defs>
</svg>
